<svg width="28" height="28" viewBox="0 0 28 28" fill="none" xmlns="http://www.w3.org/2000/svg">
<path d="M24.9556 0H2.31773C1.08076 0 0 0.890039 0 2.11248V24.8006C0 26.0297 1.08076 27.125 2.31773 27.125H24.9489C26.1926 27.125 27.125 26.0224 27.125 24.8006V2.11248C27.1323 0.890039 26.1926 0 24.9556 0ZM8.40814 22.61H4.52225V10.5279H8.40814V22.61ZM6.59961 8.6909H6.57176C5.32812 8.6909 4.52285 7.76514 4.52285 6.60627C4.52285 5.42621 5.34932 4.52225 6.6208 4.52225C7.89229 4.52225 8.67031 5.41955 8.69816 6.60627C8.69756 7.76514 7.89229 8.6909 6.59961 8.6909ZM22.61 22.61H18.7241V16.0037C18.7241 14.4211 18.1586 13.3397 16.7527 13.3397C15.6786 13.3397 15.0429 14.0663 14.7601 14.774C14.6542 15.0283 14.6257 15.3747 14.6257 15.7283V22.61H10.7398V10.5279H14.6257V12.2093C15.1912 11.404 16.0746 10.2451 18.1302 10.2451C20.681 10.2451 22.6106 11.9265 22.6106 15.5515L22.61 22.61Z" fill="#4C75B3"/>
</svg>
