<svg width="33" height="24" viewBox="0 0 33 24" fill="none" xmlns="http://www.w3.org/2000/svg">
<path fill-rule="evenodd" clip-rule="evenodd" d="M32.31 3.63C32.1226 2.92842 31.7547 2.2882 31.2428 1.77315C30.7309 1.25809 30.0929 0.886187 29.3925 0.6945C26.82 -2.38419e-07 16.5 0 16.5 0C16.5 0 6.18 -2.38419e-07 3.6075 0.6945C2.90709 0.886187 2.26914 1.25809 1.75725 1.77315C1.24535 2.2882 0.877375 2.92842 0.69 3.63C5.96046e-08 6.222 0 11.625 0 11.625C0 11.625 5.96046e-08 17.028 0.69 19.62C0.877146 20.3219 1.24502 20.9624 1.75693 21.4777C2.26884 21.9931 2.90691 22.3652 3.6075 22.557C6.1815 23.25 16.5 23.25 16.5 23.25C16.5 23.25 26.82 23.25 29.3925 22.557C30.0931 22.3652 30.7312 21.9931 31.2431 21.4777C31.755 20.9624 32.1229 20.3219 32.31 19.62C33 17.031 33 11.625 33 11.625C33 11.625 33 6.222 32.31 3.63ZM13.125 6.7185V16.5315L21.75 11.625L13.125 6.7185Z" fill="#FF0000"/>
</svg>
