<svg width="82" height="82" viewBox="0 0 82 82" fill="none" xmlns="http://www.w3.org/2000/svg">
<path d="M47.4463 47.2061C45.0973 45.2041 42.4948 43.6693 39.6387 42.6016C36.7826 41.5339 33.8197 41 30.75 41C28.401 41 26.1322 41.307 23.9434 41.9209C21.7546 42.5348 19.7126 43.389 17.8174 44.4834C15.9222 45.5778 14.2005 46.9124 12.6523 48.4873C11.1042 50.0622 9.76953 51.7972 8.64844 53.6924C7.52734 55.5876 6.65983 57.6296 6.0459 59.8184C5.43197 62.0072 5.125 64.2761 5.125 66.625H0C0 63.4219 0.467122 60.3389 1.40137 57.376C2.33561 54.4131 3.68359 51.6771 5.44531 49.168C7.20703 46.6589 9.28906 44.43 11.6914 42.4814C14.0938 40.5329 16.8164 38.9981 19.8594 37.877C16.8431 35.9017 14.4941 33.4193 12.8125 30.4297C11.1309 27.4401 10.2767 24.1302 10.25 20.5C10.25 17.6706 10.7839 15.0147 11.8516 12.5322C12.9193 10.0498 14.374 7.87435 16.2158 6.00586C18.0576 4.13737 20.2331 2.66927 22.7422 1.60156C25.2513 0.533854 27.9206 0 30.75 0C33.5794 0 36.2354 0.533854 38.7178 1.60156C41.2002 2.66927 43.3757 4.12402 45.2441 5.96582C47.1126 7.80762 48.5807 9.98307 49.6484 12.4922C50.7161 15.0013 51.25 17.6706 51.25 20.5C51.25 22.2617 51.0365 23.9834 50.6094 25.665C50.1823 27.3467 49.5417 28.9349 48.6875 30.4297C47.8333 31.9245 46.8324 33.2992 45.6846 34.5537C44.5368 35.8083 43.1888 36.916 41.6406 37.877C43.3757 38.5443 45.0306 39.3584 46.6055 40.3193C48.1803 41.2803 49.6618 42.3613 51.0498 43.5625L47.4463 47.2061ZM15.375 20.5C15.375 22.6354 15.7754 24.624 16.5762 26.4658C17.377 28.3076 18.4714 29.9359 19.8594 31.3506C21.2474 32.7653 22.8757 33.8731 24.7441 34.6738C26.6126 35.4746 28.6146 35.875 30.75 35.875C32.8587 35.875 34.8473 35.4746 36.7158 34.6738C38.5843 33.8731 40.2126 32.7786 41.6006 31.3906C42.9886 30.0026 44.0964 28.3744 44.9238 26.5059C45.7513 24.6374 46.1517 22.6354 46.125 20.5C46.125 18.3913 45.7246 16.4027 44.9238 14.5342C44.123 12.6657 43.0286 11.0374 41.6406 9.64942C40.2526 8.26139 38.611 7.15365 36.7158 6.32617C34.8206 5.4987 32.832 5.09831 30.75 5.125C28.6146 5.125 26.626 5.52539 24.7842 6.32617C22.9424 7.12695 21.3141 8.22136 19.8994 9.60938C18.4847 10.9974 17.377 12.639 16.5762 14.5342C15.7754 16.4294 15.375 18.418 15.375 20.5ZM69.1875 30.75C70.9492 30.75 72.6042 31.0837 74.1523 31.751C75.7005 32.4183 77.0485 33.3392 78.1963 34.5137C79.3441 35.6882 80.265 37.0495 80.959 38.5977C81.653 40.1458 82 41.8008 82 43.5625C82 45.3242 81.6663 46.9792 80.999 48.5274C80.3317 50.0755 79.4108 51.4369 78.2363 52.6113C77.0619 53.7858 75.7005 54.7067 74.1523 55.374C72.6042 56.0413 70.9492 56.375 69.1875 56.375C68.5736 56.375 67.973 56.335 67.3857 56.2549L43.8828 79.7578C43.1621 80.4785 42.3346 81.0257 41.4004 81.3994C40.4661 81.7731 39.4785 81.9733 38.4375 82C37.3698 82 36.3688 81.7998 35.4346 81.3994C34.5003 80.999 33.6862 80.4518 32.9922 79.7578C32.2982 79.0638 31.751 78.2497 31.3506 77.3154C30.9502 76.3812 30.75 75.3802 30.75 74.3125C30.75 73.2982 30.9368 72.3239 31.3105 71.3897C31.6842 70.4554 32.2448 69.6146 32.9922 68.8672L56.4951 45.3643C56.415 44.777 56.375 44.1764 56.375 43.5625C56.375 41.8008 56.7087 40.1458 57.376 38.5977C58.0433 37.0495 58.9508 35.7015 60.0986 34.5537C61.2464 33.4059 62.6077 32.485 64.1826 31.791C65.7575 31.097 67.4258 30.75 69.1875 30.75ZM69.1875 51.25C70.2552 51.25 71.2562 51.0498 72.1904 50.6494C73.1247 50.249 73.9388 49.7018 74.6328 49.0078C75.3268 48.3138 75.874 47.4997 76.2744 46.5654C76.6748 45.6312 76.875 44.6302 76.875 43.5625C76.875 42.4681 76.6214 41.3737 76.1143 40.2793L70.2686 46.125H66.625V42.4814L72.4707 36.6357C71.3763 36.1286 70.2819 35.875 69.1875 35.875C68.1198 35.875 67.1188 36.0752 66.1846 36.4756C65.2503 36.876 64.4362 37.4232 63.7422 38.1172C63.0482 38.8112 62.501 39.6253 62.1006 40.5596C61.7002 41.4938 61.5 42.4948 61.5 43.5625C61.5 44.6569 61.7536 45.7513 62.2607 46.8457L36.6357 72.5108C36.1286 73.0179 35.875 73.6185 35.875 74.3125C35.875 75.0065 36.1286 75.6071 36.6357 76.1143C37.1429 76.6214 37.7435 76.875 38.4375 76.875C39.1315 76.875 39.7321 76.6214 40.2393 76.1143L65.9043 50.4893C66.9987 50.9964 68.0931 51.25 69.1875 51.25Z" fill="#626262"/>
</svg>
