<svg width="87" height="91" viewBox="0 0 87 91" fill="none" xmlns="http://www.w3.org/2000/svg">
<path fill-rule="evenodd" clip-rule="evenodd" d="M32.4352 81.9065C31.6227 81.3495 30.886 80.6893 30.2436 79.9424L29.5611 79.5254L32.7386 76.1204L35.6126 72.9468C35.7471 72.8624 35.8631 72.7515 35.9535 72.621C36.044 72.4905 36.1071 72.343 36.139 72.1875C36.1709 72.0319 36.1709 71.8715 36.1391 71.7159C36.1073 71.5603 36.0443 71.4128 35.9539 71.2823C35.8658 71.146 35.7513 71.0288 35.6172 70.9376C35.483 70.8464 35.3319 70.783 35.1728 70.7512C35.0138 70.7194 34.8499 70.7198 34.691 70.7524C34.5321 70.785 34.3813 70.8491 34.2476 70.941L30.2816 73.5497C29.4095 74.1943 27.8245 74.9526 26.5012 75.8588C25.8094 76.4096 25.2312 77.0895 24.7988 77.8608C24.6086 78.2559 24.5098 78.6888 24.5098 79.1272C24.5098 79.5657 24.6086 79.9986 24.7988 80.3936C25.3713 81.5274 26.1562 82.5397 27.1041 83.3815C27.913 84.0008 28.7699 84.543 29.6749 85.0081C31.529 85.8764 33.4552 86.4452 35.3472 87.3134C35.6644 87.4924 36.0387 87.5411 36.3911 87.4491C36.7435 87.3571 37.0463 87.1317 37.2355 86.8205C37.3345 86.6662 37.4005 86.4931 37.4293 86.312C37.4581 86.1309 37.4491 85.9458 37.4028 85.7684C37.3565 85.591 37.2739 85.4251 37.1602 85.2812C37.0466 85.1373 36.9044 85.0185 36.7425 84.9323C35.5368 83.7189 33.8722 82.8886 32.4352 81.9065ZM47.4464 65.9133C47.1443 65.8131 46.8153 65.8318 46.5265 65.9657C46.2377 66.0995 46.0107 66.3384 45.8918 66.6337C44.6482 69.0528 43.249 71.3202 42.1153 73.7772C41.6069 74.8126 41.1513 75.8731 40.7503 76.9546C40.375 78.0504 39.9958 79.1462 39.6963 80.242C38.9379 82.8886 38.4071 85.5351 37.88 88.2197C37.828 88.3912 37.8103 88.5713 37.8278 88.7497C37.8454 88.9281 37.8979 89.1013 37.9824 89.2593C38.0669 89.4174 38.1818 89.5573 38.3203 89.6711C38.4589 89.7848 38.6185 89.8701 38.79 89.9221C39.141 90.0272 39.5192 89.9909 39.8437 89.8208C40.1682 89.6507 40.4133 89.3605 40.5266 89.0121C41.5883 86.4793 42.832 84.0981 43.9278 81.4515C44.6482 79.7529 45.3307 78.0883 45.8956 76.3479C46.8815 73.398 47.4464 70.3761 48.1631 67.3882C48.2496 67.0968 48.2235 66.7836 48.0901 66.5104C47.9567 66.2373 47.7256 66.0242 47.4426 65.9133M58.5977 74.0047C57.3807 73.259 56.1181 72.5903 54.8174 72.0027C53.5917 71.4259 52.3288 70.9319 51.0371 70.5239C50.8908 70.455 50.7322 70.416 50.5706 70.4093C50.4089 70.4026 50.2476 70.4282 50.0961 70.4847C49.9445 70.5413 49.8058 70.6275 49.688 70.7384C49.5703 70.8494 49.4759 70.9827 49.4105 71.1306C49.3422 71.2742 49.3038 71.4301 49.2975 71.5889C49.2912 71.7478 49.3172 71.9063 49.3739 72.0548C49.4306 72.2033 49.5169 72.3387 49.6274 72.453C49.738 72.5672 49.8706 72.6578 50.0172 72.7193C51.0611 73.3841 52.0558 74.1147 53.0012 74.9109C53.9517 75.6844 54.8465 76.516 55.6857 77.4058L56.1407 77.6333C55.711 78.3158 55.232 78.9591 54.7037 79.5633L52.8533 81.679L49.6001 84.9702C49.2913 85.172 49.0744 85.4872 48.9964 85.8477C48.9183 86.2082 48.9854 86.5849 49.183 86.8964C49.3968 87.1923 49.715 87.3961 50.0732 87.4665C50.4315 87.5369 50.8031 87.4686 51.113 87.2755L55.3483 84.4773L57.8432 82.5852C58.6647 81.8269 59.4079 80.9953 60.0727 80.0903C60.6262 79.2941 60.9751 78.3727 61.0964 77.4058C61.1566 77.0538 61.133 76.6926 61.0276 76.3513C60.9222 76.0101 60.7379 75.6985 60.4897 75.4417C59.911 74.898 59.2768 74.4164 58.5977 74.0047ZM51.3784 32.0423C51.4347 31.6834 51.4069 31.3163 51.297 30.97C51.1871 30.6237 50.9982 30.3077 50.7451 30.0469C50.4921 29.7862 50.1819 29.5879 49.8391 29.4676C49.4963 29.3474 49.1302 29.3085 48.7697 29.354C48.1465 29.4301 47.5727 29.7317 47.1565 30.2018C46.7403 30.6718 46.5106 31.278 46.5106 31.9058C46.5106 32.5336 46.7403 33.1398 47.1565 33.6099C47.5727 34.08 48.1465 34.3815 48.7697 34.4576C49.1067 34.5029 49.4496 34.4731 49.7737 34.3704C50.0978 34.2676 50.3952 34.0944 50.6445 33.8632C50.8938 33.632 51.0889 33.3485 51.2158 33.0331C51.3427 32.7176 51.3982 32.3818 51.3784 32.0423ZM37.5767 32.4177C37.6332 32.0589 37.6054 31.6919 37.4955 31.3457C37.3856 30.9996 37.1967 30.6837 36.9435 30.4232C36.6904 30.1628 36.3801 29.9648 36.0372 29.845C35.6943 29.7253 35.3283 29.687 34.968 29.7332C34.3448 29.8093 33.771 30.1108 33.3549 30.5809C32.9387 31.051 32.7089 31.6571 32.7089 32.285C32.7089 32.9128 32.9387 33.519 33.3549 33.989C33.771 34.4591 34.3448 34.7607 34.968 34.8368C35.3023 34.8677 35.6393 34.8279 35.9571 34.7198C36.2749 34.6118 36.5664 34.438 36.8126 34.2097C37.0587 33.9815 37.254 33.7039 37.3856 33.3952C37.5173 33.0864 37.5824 32.7533 37.5767 32.4177ZM37.6526 44.5169C38.464 44.9909 39.3664 45.2866 40.2991 45.3852C41.1979 45.4912 42.1087 45.4269 42.9836 45.1956C44.9695 44.6927 46.7276 43.5344 47.9735 41.9082C48.2317 41.6458 48.3764 41.2924 48.3764 40.9243C48.3764 40.5562 48.2317 40.2028 47.9735 39.9404C47.7112 39.6833 47.3586 39.5393 46.9914 39.5393C46.6242 39.5393 46.2716 39.6833 46.0094 39.9404C45.2511 40.4147 44.4043 40.7298 43.5204 40.8667C42.6366 41.0036 41.7341 40.9593 40.8679 40.7366C40.394 40.685 39.9249 40.5963 39.465 40.4712C38.2431 40.2485 37.1502 39.5728 36.4051 38.5791C36.272 38.2805 36.0272 38.0457 35.7232 37.9253C35.4192 37.8048 35.0801 37.8081 34.7785 37.9346C34.6281 37.9923 34.4912 38.0804 34.3762 38.1933C34.2613 38.3062 34.1708 38.4415 34.1103 38.5908C34.0499 38.7402 34.0208 38.9003 34.0248 39.0614C34.0289 39.2225 34.066 39.381 34.1339 39.5271C34.3192 40.5657 34.7304 41.5509 35.3384 42.4132C35.9464 43.2754 36.7365 43.9936 37.6526 44.5169ZM15.422 70.5657C15.1945 72.057 15.0807 73.556 15.0807 75.0626C15.0049 76.5615 15.0049 78.0618 15.0807 79.5633C15.403 83.0516 16.0363 86.5058 16.9728 89.8842C17.0382 90.2401 17.2424 90.5555 17.5403 90.761C17.8382 90.9665 18.2055 91.0453 18.5615 90.98C18.7401 90.9525 18.9112 90.8888 19.0643 90.7928C19.2174 90.6968 19.3493 90.5706 19.4519 90.4219C19.5545 90.2731 19.6256 90.105 19.6609 89.9278C19.6963 89.7505 19.695 89.568 19.6573 89.3913C19.6573 87.503 19.3919 85.611 19.354 83.6848C19.3161 81.7549 19.354 79.9007 19.354 78.0125V65.6137C19.354 62.6638 16.1803 65.3483 15.5737 67.502C15.7253 68.7494 15.6116 69.3182 15.422 70.5657ZM54.9691 54.7999C54.6313 54.656 54.2512 54.6465 53.9066 54.7733C53.562 54.9002 53.2788 55.1538 53.115 55.4824C52.2191 56.8651 51.0017 58.0102 49.5669 58.8197C48.132 59.6293 46.5223 60.0792 44.8757 60.131C42.9337 60.372 40.9628 60.2041 39.0896 59.6381C37.8688 59.3129 36.7253 58.7469 35.7264 57.9735C35.0232 57.3827 34.4544 56.6484 34.058 55.8199C34.058 55.4786 33.531 55.1753 32.511 55.8199C32.511 55.8199 31.2257 57.1811 31.4152 57.6702C31.7413 58.8001 32.3063 59.8466 33.0798 60.7339C34.6045 62.5227 36.6118 63.835 38.8621 64.5141C41.0303 65.1128 43.3074 65.2036 45.5164 64.7796C47.7537 64.4197 49.862 63.4946 51.6416 62.0919C53.4212 60.6892 54.8132 58.8553 55.6857 56.764C55.785 56.5911 55.8453 56.3985 55.8622 56.1998C55.8792 56.0011 55.8524 55.8011 55.7837 55.6139C55.715 55.4267 55.6062 55.2568 55.4648 55.1161C55.3234 54.9755 55.1567 54.8676 54.9691 54.7999ZM66.1583 70.9827C66.1583 73.2501 66.6891 75.5176 66.9925 77.785C67.4854 81.1482 68.0882 84.4773 68.5053 87.9163C68.4956 88.1009 68.5235 88.2855 68.5874 88.4589C68.6513 88.6323 68.7499 88.7908 68.8771 88.9249C69.0042 89.059 69.1574 89.1658 69.3272 89.2387C69.497 89.3117 69.6798 89.3493 69.8646 89.3493C70.0495 89.3493 70.2323 89.3117 70.4021 89.2387C70.5719 89.1658 70.725 89.059 70.8522 88.9249C70.9794 88.7908 71.078 88.6323 71.1419 88.4589C71.2058 88.2855 71.2337 88.1009 71.224 87.9163C71.224 84.4773 71.5273 81.1141 71.224 77.7091C71.224 76.2342 71.224 74.7971 70.8827 73.3639C70.7487 71.9138 70.522 70.4739 70.204 69.0528C70.0398 68.1091 69.8246 67.175 69.5594 66.2545C69.184 64.7416 66.31 62.0192 65.5554 64.025C65.7829 67.0091 65.7829 67.957 66.1621 70.9789" fill="#626262"/>
<path fill-rule="evenodd" clip-rule="evenodd" d="M85.4048 82.1682C84.824 79.8115 84.0387 77.5101 83.0578 75.2901C81.3754 71.6357 79.2418 68.2066 76.7067 65.0829C74.1321 61.9737 71.1709 59.2058 67.8987 56.8398C63.4337 53.6831 58.3387 51.5295 52.9633 50.5267C54.2629 49.4253 55.4082 48.1538 56.3682 46.7464C59.2982 42.2567 60.7999 36.985 60.6755 31.6252C60.6854 31.4356 60.6566 31.246 60.5908 31.0679C60.5251 30.8897 60.4238 30.7269 60.2931 30.5892C60.1623 30.4515 60.005 30.3418 59.8305 30.2669C59.656 30.1919 59.4682 30.1533 59.2783 30.1533C59.0885 30.1533 58.9006 30.1919 58.7261 30.2669C58.5516 30.3418 58.3943 30.4515 58.2636 30.5892C58.1329 30.7269 58.0315 30.8897 57.9658 31.0679C57.9 31.246 57.8712 31.4356 57.8811 31.6252C57.6827 35.5596 56.4989 39.3811 54.4383 42.7386C52.7155 45.8756 49.8415 48.2208 46.4227 49.2792C43.4333 50.0631 40.2735 49.8908 37.3871 48.7863C35.4069 48.1134 33.5639 47.0897 31.9461 45.7644C29.8788 44.0392 28.2641 41.8352 27.2425 39.344C26.2209 36.8527 25.8233 34.1497 26.0842 31.4698C26.1098 31.3129 26.1034 31.1525 26.0654 30.9982C26.0273 30.8439 25.9583 30.699 25.8626 30.5721C25.7669 30.4452 25.6465 30.339 25.5086 30.26C25.3707 30.181 25.2183 30.1308 25.0604 30.1124C24.7357 30.0711 24.4077 30.1588 24.1469 30.3566C23.886 30.5543 23.7131 30.8464 23.6651 31.1702C23.033 34.3484 23.2033 37.6339 24.1606 40.7296C25.118 43.8254 26.8321 46.6335 29.1478 48.9001C29.9441 49.6584 30.801 50.3396 31.7186 50.9438C26.9124 52.0442 22.3579 54.0448 18.2961 56.8398C15.0282 59.1808 12.0687 61.9249 9.48803 65.0071C6.95296 68.1308 4.81932 71.5599 3.13699 75.2142C2.1558 77.4355 1.37049 79.7382 0.789973 82.0961C0.154385 84.4856 -0.100264 86.9604 0.0354261 89.4292C0.000743929 89.6097 0.00751949 89.7957 0.0552321 89.9732C0.102945 90.1507 0.190343 90.315 0.310847 90.4537C0.431352 90.5925 0.581806 90.7021 0.75085 90.7742C0.919894 90.8463 1.10312 90.8791 1.28668 90.87C1.60719 90.8582 1.90997 90.7199 2.12881 90.4854C2.34765 90.2509 2.46474 89.9394 2.45449 89.6188C2.53369 87.4332 2.96916 85.2751 3.74368 83.2298C4.49029 81.1335 5.42559 79.1093 6.53811 77.1821C8.31916 74.0613 10.4361 71.1446 12.8513 68.484C13.9508 67.1607 18.2582 63.4184 20.226 61.4164C21.6315 60.2056 23.1052 59.0832 24.6471 58.0494C28.4655 56.1751 32.4216 54.5957 36.4809 53.3249C40.126 54.6312 44.0838 54.79 47.8218 53.7799C48.201 53.7799 48.5422 53.3249 48.9214 53.1733C50.749 53.5069 52.55 53.948 54.3245 54.4966C56.9736 55.3713 59.512 56.5508 61.8889 58.0114C66.1639 60.9511 70.0166 64.4619 73.3397 68.4461C75.6432 71.1161 77.7182 73.975 79.5429 76.9925C80.6576 78.9238 81.5904 80.9397 82.3411 83.0402C83.1108 85.0877 83.5469 87.2452 83.6265 89.4292C83.6207 89.6281 83.6639 89.8253 83.7523 90.0035C83.8407 90.1818 83.9716 90.3355 84.1334 90.4513C84.2953 90.567 84.4831 90.6412 84.6803 90.6673C84.8775 90.6934 85.0781 90.6705 85.2645 90.6008C85.4883 90.5156 85.6819 90.3661 85.8209 90.1711C85.9598 89.9761 86.0381 89.7444 86.0456 89.505C86.2171 87.042 85.9996 84.5673 85.401 82.1719" fill="#626262"/>
<path fill-rule="evenodd" clip-rule="evenodd" d="M15.4978 31.0944C17.3889 30.5015 19.3235 30.0578 21.2839 29.7673C24.268 29.2782 27.3316 29.0128 30.3195 28.7132C34.0997 28.2582 37.425 28.0307 40.9058 27.8032C44.3865 27.5757 47.9735 27.3482 51.4921 27.3862C56.2772 27.4241 61.0547 27.8108 65.7829 28.5616C66.1311 28.6102 66.4849 28.526 66.7738 28.3256C67.0627 28.1252 67.2656 27.8234 67.3421 27.4802C67.4186 27.137 67.363 26.7776 67.1865 26.4735C67.01 26.1695 66.7255 25.943 66.3896 25.8391C65.5554 25.6117 64.7592 25.5358 63.9288 25.3462C64.2814 24.1177 64.4596 22.8437 64.4596 21.5659C64.2973 19.3523 63.8119 17.1743 63.0188 15.1011C62.3833 13.4642 61.587 11.8943 60.6414 10.4146C59.6516 8.91707 58.4541 7.56766 57.0848 6.40685C54.7146 4.44404 51.8265 3.21002 48.7697 2.85406C47.5313 1.64821 46.0077 0.77555 44.341 0.317436C41.5055 -0.287812 38.5534 -0.0235192 35.8704 1.07577C34.4849 1.61263 33.2062 2.39198 32.094 3.37731C31.8832 3.62698 31.693 3.89326 31.5252 4.17356C28.5296 5.19639 25.8217 6.92017 23.6272 9.20131C22.5149 10.3439 21.5569 11.604 20.7531 12.9816C19.9336 14.3982 19.287 15.908 18.8269 17.4785C18.0495 20.6969 18.0495 24.0541 18.8269 27.2724C17.4531 27.6622 16.1024 28.1293 14.7812 28.6715C14.6076 28.7171 14.4458 28.7995 14.3068 28.9132C14.1679 29.0268 14.055 29.1691 13.9759 29.3302C13.8968 29.4913 13.8532 29.6676 13.8482 29.8471C13.8433 30.0265 13.877 30.2049 13.947 30.3702C13.9976 30.5226 14.0788 30.663 14.1857 30.7828C14.2925 30.9026 14.4228 30.9992 14.5685 31.0667C14.7142 31.1342 14.8721 31.1711 15.0326 31.1752C15.1931 31.1794 15.3527 31.1506 15.5016 31.0906M55.4279 11.2412C56.755 12.9323 57.9076 14.7599 58.8669 16.6861C59.6252 18.0207 60.2433 19.4199 60.721 20.8834C61.0623 22.1119 61.1495 23.3973 60.9864 24.6637C57.3262 23.9054 53.6331 23.4011 49.9072 23.1509C50.2484 21.9375 50.6655 20.6939 50.8892 19.3706C51.2735 17.5202 51.5768 15.6547 51.7993 13.7741C51.9317 12.2147 51.9317 10.6469 51.7993 9.08756C51.7043 8.3099 51.5132 7.54701 51.2305 6.81635C51.6855 7.11969 52.1405 7.42302 52.5538 7.76427C53.618 8.83352 54.576 9.99251 55.4279 11.2412ZM37.6146 5.38689C39.3509 4.67984 41.2529 4.48254 43.0974 4.81814C43.9621 4.98213 44.7785 5.33946 45.4857 5.86342C46.1928 6.38737 46.7724 7.06441 47.181 7.8439C47.6019 8.65531 47.8597 9.53877 47.9393 10.4526C48.0303 11.5623 48.0303 12.6707 47.9393 13.7779C47.9393 15.7457 47.7498 17.5581 47.5602 19.1469C47.3706 20.4234 47.1052 21.6835 46.7639 22.9271C44.0314 22.7755 41.2976 22.7755 38.5626 22.9271C37.1596 22.9271 35.7264 23.3442 34.3273 23.5717C33.986 22.1309 33.6827 20.7356 33.4931 19.3364C33.3187 17.5164 33.2428 15.6889 33.2656 13.8537C33.1757 12.5952 33.1757 11.3319 33.2656 10.0734C33.3718 9.38331 33.5866 8.72735 33.9102 8.10552C34.2187 7.52054 34.6749 7.02643 35.2335 6.67227C35.973 6.14927 36.7724 5.72028 37.6146 5.38689ZM24.7988 15.4386C25.4307 14.2379 26.1613 13.1029 26.9904 12.0337C27.6931 11.106 28.4755 10.2491 29.3374 9.46294C29.3172 10.9847 29.431 12.4975 29.6787 14.0016C29.9213 16.0491 30.2853 18.0776 30.7707 20.0872C31.1043 21.4699 31.5088 22.8311 31.984 24.1708L29.7128 24.5121C26.9145 25.1946 24.1959 25.7974 21.4356 26.5899C21.5266 23.9964 22.0764 21.4332 23.0584 19.0293C23.5791 17.8008 24.1593 16.6039 24.7988 15.4386Z" fill="#626262"/>
</svg>
