<svg width="75" height="75" viewBox="0 0 75 75" fill="none" xmlns="http://www.w3.org/2000/svg">
<path d="M37.0833 -8.15392e-05C57.5644 -8.15392e-05 74.1666 16.6021 74.1666 37.0833C74.1666 57.5644 57.5644 74.1666 37.0833 74.1666C16.6022 74.1666 -2.0504e-05 57.5644 -2.0504e-05 37.0833C-2.0504e-05 16.6021 16.6022 -8.15392e-05 37.0833 -8.15392e-05ZM38.3182 16.6874L21.6307 38.9374C21.2862 39.3965 21.0763 39.9425 21.0248 40.5142C20.9733 41.0858 21.082 41.6606 21.3389 42.1739C21.5957 42.6872 21.9905 43.1188 22.4789 43.4203C22.9674 43.7217 23.5302 43.8811 24.1041 43.8806H31.7285L30.3082 55.2393C30.2213 55.9165 30.3612 56.6034 30.706 57.1927C31.0509 57.782 31.5813 58.2404 32.2143 58.4963C32.8473 58.7523 33.5473 58.7912 34.2048 58.6072C34.8623 58.4231 35.4403 58.0264 35.8484 57.4791L52.5359 35.2291C52.8805 34.77 53.0903 34.224 53.1418 33.6523C53.1934 33.0807 53.0846 32.5059 52.8278 31.9926C52.5709 31.4793 52.1761 31.0477 51.6877 30.7462C51.1992 30.4448 50.6365 30.2854 50.0625 30.2859H42.4381L43.8584 18.9235C43.9443 18.2467 43.8036 17.5604 43.4584 16.9718C43.1132 16.3833 42.5828 15.9256 41.9501 15.6703C41.3174 15.4149 40.6179 15.3762 39.9609 15.5602C39.3039 15.7442 38.7262 16.1406 38.3182 16.6874Z" fill="#B11111"/>
</svg>
