<svg width="50" height="50" viewBox="0 0 50 50" fill="none" xmlns="http://www.w3.org/2000/svg">
<path fill-rule="evenodd" clip-rule="evenodd" d="M25 4.16664C13.4938 4.16664 4.1667 13.4937 4.1667 25C4.16671 36.5062 13.4938 45.8333 25 45.8333C36.5063 45.8333 45.8334 36.5062 45.8334 25C45.8334 13.4937 36.5063 4.16664 25 4.16664ZM25.0105 16.1625C24.6199 16.5532 24.4005 17.083 24.4005 17.6354C24.4005 18.1878 24.6199 18.7176 25.0105 19.1083L28.8167 22.9166L16.1584 22.9166C15.6058 22.9166 15.0759 23.1361 14.6852 23.5268C14.2945 23.9175 14.075 24.4474 14.075 25C14.075 25.5525 14.2945 26.0824 14.6852 26.4731C15.0759 26.8638 15.6058 27.0833 16.1584 27.0833L28.8167 27.0833L25.0063 30.8937C24.6157 31.2846 24.3963 31.8147 24.3965 32.3674C24.3967 32.92 24.6164 33.45 25.0073 33.8406C25.3983 34.2312 25.9283 34.4506 26.481 34.4504C27.0336 34.4502 27.5636 34.2305 27.9542 33.8396L35.3188 26.4729C35.7094 26.0822 35.9288 25.5524 35.9288 25C35.9288 24.4476 35.7094 23.9177 35.3188 23.5271L27.9542 16.1625C27.7607 15.9688 27.531 15.8151 27.278 15.7103C27.0251 15.6054 26.754 15.5515 26.4802 15.5515C26.2065 15.5515 25.9354 15.6054 25.6825 15.7103C25.4295 15.8151 25.1998 15.9688 25.0063 16.1625L25.0105 16.1625Z" fill="#FF9500"/>
</svg>
