<svg width="50" height="50" viewBox="0 0 50 50" fill="none" xmlns="http://www.w3.org/2000/svg">
<g clip-path="url(#clip0_10_6)">
<path fill-rule="evenodd" clip-rule="evenodd" d="M25 45.8333C36.5063 45.8333 45.8333 36.5062 45.8333 25C45.8333 13.4937 36.5063 4.16666 25 4.16666C13.4938 4.16666 4.16667 13.4937 4.16667 25C4.16667 36.5062 13.4938 45.8333 25 45.8333ZM24.9896 33.8375C25.3801 33.4468 25.5996 32.917 25.5996 32.3646C25.5996 31.8121 25.3801 31.2823 24.9896 30.8917L21.1833 27.0833H33.8417C34.3942 27.0833 34.9241 26.8638 35.3148 26.4731C35.7055 26.0824 35.925 25.5525 35.925 25C35.925 24.4475 35.7055 23.9176 35.3148 23.5269C34.9241 23.1362 34.3942 22.9167 33.8417 22.9167H21.1833L24.9937 19.1062C25.3844 18.7153 25.6037 18.1852 25.6035 17.6326C25.6034 17.0799 25.3836 16.55 24.9927 16.1594C24.6018 15.7687 24.0717 15.5494 23.5191 15.5496C22.9664 15.5498 22.4365 15.7695 22.0458 16.1604L14.6812 23.5271C14.2907 23.9178 14.0713 24.4476 14.0713 25C14.0713 25.5524 14.2907 26.0822 14.6812 26.4729L22.0458 33.8375C22.2393 34.0312 22.4691 34.1849 22.722 34.2897C22.9749 34.3945 23.246 34.4485 23.5198 34.4485C23.7936 34.4485 24.0647 34.3945 24.3176 34.2897C24.5705 34.1849 24.8003 34.0312 24.9937 33.8375H24.9896Z" fill="#FF9500"/>
</g>
<defs>
<clipPath id="clip0_10_6">
<rect width="50" height="50" fill="white"/>
</clipPath>
</defs>
</svg>
