<svg width="79" height="79" viewBox="0 0 79 79" fill="none" xmlns="http://www.w3.org/2000/svg">
<path d="M54.4655 0V4.26194C51.9792 4.68453 49.6182 5.65584 47.5543 7.10525L44.426 4.16494L40.2581 8.62088L43.2893 11.4612C41.906 13.4839 40.9688 15.7778 40.54 18.1905H36.278V24.253H40.54C40.9825 26.769 41.9767 29.0606 43.3832 31.0734L40.1611 34.1955L44.5261 38.5605L47.6483 35.3353C49.661 36.7418 51.9526 37.736 54.4686 38.1786V42.4375H60.5311V38.1756C62.9435 37.7476 65.2374 36.8115 67.2604 35.4293L70.0977 38.4605L74.5536 34.2895L71.6133 31.1673C73.038 29.1364 74.008 26.7872 74.4566 24.25H78.7155V18.1875H74.4536C74.0181 15.7329 73.0474 13.4043 71.6103 11.3672L74.4536 8.52388L70.1886 4.26194L67.3483 7.10525C65.3113 5.66816 62.9827 4.69739 60.528 4.26194V0H54.4655ZM57.4968 10.0425C58.9673 10.0329 60.4251 10.3153 61.7856 10.8735C63.1461 11.4317 64.3822 12.2546 65.4222 13.2942C66.4622 14.3339 67.2853 15.5698 67.8439 16.9302C68.4024 18.2905 68.6853 19.7482 68.676 21.2188C68.676 27.448 63.726 32.398 57.4968 32.398C51.2675 32.398 46.3175 27.448 46.3175 21.2188C46.3175 14.9895 51.2675 10.0395 57.4968 10.0395V10.0425ZM18.1815 27.9421L12.5979 30.2155L14.7744 35.7021C11.8774 37.4361 9.44029 39.842 7.66907 42.7164L2.27344 40.5339L0 46.1265L5.39563 48.303C4.96991 49.9427 4.74795 51.6287 4.7348 53.3227C4.7348 55.0505 4.99247 56.7359 5.39563 58.3425L0 60.525L2.27344 66.1116L7.66907 63.9291C9.42453 66.8408 11.8634 69.2806 14.7744 71.0374L12.5919 76.433L18.1845 78.7064L20.367 73.3108C22.0067 73.7365 23.6927 73.9585 25.3867 73.9716C27.1145 73.9716 28.806 73.714 30.4065 73.3108L32.589 78.7064L38.1756 76.433L35.9931 71.0374C38.8705 69.2699 41.2771 66.832 43.0074 63.9321L48.494 66.1085L50.7674 60.522L45.2808 58.3395C45.6749 56.7329 45.9417 55.0445 45.9417 53.3197C45.9417 51.5919 45.6779 49.9005 45.2748 48.2969L50.7704 46.1205L48.497 40.5278L43.0104 42.7103C41.2686 39.8436 38.8628 37.4378 35.9961 35.696L38.1786 30.2094L32.5859 27.936L30.4125 33.4226C28.7705 33.0035 27.0843 32.7827 25.3898 32.7648C23.662 32.7648 21.9766 33.0255 20.37 33.4256L18.1875 27.939L18.1815 27.9421ZM25.3837 38.8303C33.4559 38.8303 39.8731 45.2566 39.8731 53.3258C39.8792 61.398 33.4559 67.9121 25.3837 67.9121C23.4675 67.9145 21.5697 67.5389 19.7989 66.8067C18.0281 66.0745 16.4192 65.0002 15.0643 63.6452C13.7093 62.2903 12.635 60.6813 11.9028 58.9106C11.1706 57.1398 10.7949 55.2419 10.7973 53.3258C10.7973 45.2535 17.3145 38.8303 25.3837 38.8303Z" fill="#626262"/>
</svg>
